# xmcd CD database file
#
# Track frame offsets:
#	150
#	13165
#	28352
#	42975
#	61750
#	76745
#	90560
#	111367
#	126567
#	140360
#	160747
#	176197
#	191677
#
# Disc length: 2715 seconds
#
# Revision: 2
# Processed by: cddbd v1.5.1PL0 Copyright (c) Steve Scherf et al.
# Submitted via: CDex 1.50
#
DISCID=b20a990d
DTITLE=Luiz Cláudio - Eu sou a cara do velho
DYEAR=2003
DGENRE=Country
TTITLE0=Eu sou a cara do velho
TTITLE1=O bagual da madrugada
TTITLE2=O pau pegou
TTITLE3=Me ajuda
TTITLE4=Eu tenho o que elas gostam
TTITLE5=Solto das patas
TTITLE6=Sentimentos
TTITLE7=Linda pantaneira
TTITLE8=Bem na moda da fronteira
TTITLE9=Ela é uma flor, eu sou campeiro
TTITLE10=Armando bochincho
TTITLE11=Estou com saudade
TTITLE12=O completinho
EXTD=YEAR: 2003
EXTT0=
EXTT1=
EXTT2=
EXTT3=
EXTT4=
EXTT5=
EXTT6=
EXTT7=
EXTT8=
EXTT9=
EXTT10=
EXTT11=
EXTT12=
PLAYORDER=
